# xmcd CD database file
#
# Track frame offsets:
#	150
#	15765
#	18957
#	21102
#	33687
#	48542
#	60870
#	79050
#	99285
#	122058
#	145941
#	163229
#	176347
#	194442
#	212099
#	230096
#	249118
#	267453
#	291848
#	309492
#	328232
#	342277
#
# Disc length: 4753 seconds
#
# Revision: 0
# Processed by: cddbd v1.5.1PL0 Copyright (c) Steve Scherf et al.
# Submitted via: CDex 1.51
#
DISCID=31128f16
DTITLE=Coletanea - Zildo Selecao
DYEAR=2000
DGENRE=MPB
TTITLE0=Voce passa eu acho graca-Cassia Eller e Noite Ilustrada
TTITLE1=Fruta gogoia-Gal Costa
TTITLE2=Charles anjo 45-Gal Costa
TTITLE3=Como dois e dois-Gal Costa
TTITLE4=Comecaria tudo outra vez-Gonzaguinha
TTITLE5=Conjugacao do ausente-Vinicius
TTITLE6=Coracao de estudante-Milton Nascimento
TTITLE7=Delirio de amor e Outros-Alcione e outros
TTITLE8=Duas Sanfonas-Sandy Milton e Gil
TTITLE9=Esse seu olhar e outras-Emilio Santiago
TTITLE10=Feminina-Joyce
TTITLE11=Ligia-Chico Buarque
TTITLE12=Lobo bobo e outras-Leila Pinheiro
TTITLE13=Loucuras de uma paixao-J Aragao e Ivete Sangalo
TTITLE14=O dia da criacao-Vinicius
TTITLE15=O filho que eu quero ter-Chico Buarque
TTITLE16=Sua estupides-Gal Costa
TTITLE17=Sunshine on my shouders-John Denver
TTITLE18=Pedra de responsa-Chico Cezar
TTITLE19=Baiao da penha-Gilberto Gil
TTITLE20=Terceiro dia-Bloco da Saudade
TTITLE21=Vira virou-Kleiton e Kledir
EXTD=YEAR: 2000
EXTT0=
EXTT1=
EXTT2=
EXTT3=
EXTT4=
EXTT5=
EXTT6=
EXTT7=
EXTT8=
EXTT9=
EXTT10=
EXTT11=
EXTT12=
EXTT13=
EXTT14=
EXTT15=
EXTT16=
EXTT17=
EXTT18=
EXTT19=
EXTT20=
EXTT21=
PLAYORDER=
